<svg id="Layer_1" data-name="Layer 1" xmlns="http://www.w3.org/2000/svg" viewBox="0 0 199.71 50"><defs><style>.cls-1{fill:#e24238;}.cls-2{fill:#fff;}</style></defs><path class="cls-1" d="M5.23,4.34V45.72a1.63,1.63,0,0,0,1.63,1.63H48.24a1.63,1.63,0,0,0,1.63-1.63V4.34a1.63,1.63,0,0,0-1.63-1.63H6.86A1.63,1.63,0,0,0,5.23,4.34ZM43.91,41.39H11.19V8.67H43.91Z"/><rect x="12.63" y="10.11" width="29.84" height="29.84"/><path class="cls-2" d="M38.52,29a11,11,0,0,1-21.94,0c0-8.13,11-18.87,11-18.87S38.52,22.24,38.52,29Z"/><path d="M79,13.72c0,6.06-3.55,11.34-10.58,11.34-6.71,0-10.3-5-10.3-11.25S62,2.57,68.73,2.57C75,2.57,79,7.1,79,13.72Zm-16.63,0c0,4.42,2.06,8,6.21,8,4.51,0,6.18-3.75,6.18-7.91,0-4.33-1.9-7.83-6.22-7.83S62.39,9.32,62.39,13.72Z"/><path d="M81.34,1.63h3.93V5.47H81.34Zm0,6.87h3.93V24.74H81.34Z"/><path d="M88.07,24.74V1.63H92V24.74Z"/><path d="M107.65,20.76a33.57,33.57,0,0,0,.22,4h-3.75a7.27,7.27,0,0,1-.24-1.77c-.58,1-1.75,2.15-4.72,2.15-3.89,0-5.53-2.55-5.53-5.05,0-3.68,2.93-5.37,7.71-5.37h2.47V13.58c0-1.25-.43-2.59-2.83-2.59-2.18,0-2.61,1-2.84,2.19H94.38c.24-2.66,1.89-5.09,6.74-5.06,4.22,0,6.53,1.69,6.53,5.5Zm-3.83-3.59h-2.1c-2.89,0-4.14.85-4.14,2.66a2.35,2.35,0,0,0,2.62,2.42c3.21,0,3.62-2.21,3.62-4.62Z"/><path d="M110.43,12.59c0-1.39,0-2.87,0-4.09h3.8c.09.44.14,1.76.16,2.27a5,5,0,0,1,4.84-2.65c3.19,0,5.4,2.09,5.4,6.25V24.74h-3.93V14.82c0-2-.72-3.47-2.87-3.47s-3.44,1.49-3.44,4.49v8.9h-3.93Z"/><path d="M141.71,1.63v18.6c0,1.5,0,3,0,4.51H138c-.09-.47-.16-1.44-.19-1.9-.79,1.42-2.27,2.28-4.77,2.28-4.13,0-6.73-3.33-6.73-8.36s2.77-8.64,7.34-8.64c2.51,0,3.78.93,4.16,1.72V1.63Zm-11.39,15c0,3.42,1.45,5.27,3.77,5.27,3.33,0,3.85-2.66,3.85-5.4,0-3.06-.52-5.22-3.7-5.22C131.71,11.31,130.32,13.29,130.32,16.66Z"/><path d="M158.77,22.93c0,5.22-2,8.4-7.86,8.4-5.6,0-6.88-3.13-7.08-5.08h4c.37,1.34,1.4,2.16,3.25,2.16,3.18,0,3.85-2,3.85-5.34v-1c-.85,1.55-2.25,2.47-4.75,2.47-4.18,0-6.71-3.42-6.71-7.92,0-5.15,3.05-8.54,7.07-8.54,2.89,0,4.1,1.36,4.39,2.22,0-.54.13-1.55.16-1.84h3.72c0,1.27,0,3.11,0,4.67Zm-11.26-6.44c0,3,1.53,4.88,3.74,4.88,3,0,3.8-2,3.8-5.05s-.64-5-3.7-5C149,11.31,147.51,13.15,147.51,16.49Z"/><path d="M174.16,20.76a31.49,31.49,0,0,0,.22,4h-3.76a7.79,7.79,0,0,1-.24-1.77c-.58,1-1.75,2.15-4.71,2.15-3.89,0-5.54-2.55-5.54-5.05,0-3.68,2.93-5.37,7.72-5.37h2.47V13.58c0-1.25-.43-2.59-2.84-2.59-2.17,0-2.6,1-2.84,2.19h-3.75c.23-2.66,1.88-5.09,6.73-5.06,4.23,0,6.54,1.69,6.54,5.5Zm-3.83-3.59h-2.1c-2.89,0-4.14.85-4.14,2.66a2.34,2.34,0,0,0,2.61,2.42c3.22,0,3.63-2.21,3.63-4.62Z"/><path d="M179.41,19.94c.38,1.45,1.53,2.29,3.38,2.29s2.62-.75,2.62-1.9-.71-1.71-3.3-2.34c-5.07-1.24-6-2.81-6-5.07s1.68-4.8,6.34-4.8,6.36,2.6,6.53,4.82h-3.75c-.18-.75-.71-2-2.95-2-1.75,0-2.3.81-2.3,1.65s.56,1.41,3.31,2.06c5.25,1.22,6.09,3,6.09,5.4,0,2.75-2.11,5.07-6.76,5.07s-6.73-2.3-7.11-5.18Z"/><path d="M73.59,43.72c-.81,3.13-3.15,5.46-7.33,5.46C60.75,49.18,58,45,58,39.79c0-5,2.78-9.53,8.38-9.53,4.35,0,6.71,2.47,7.25,5.55H71.16a4.66,4.66,0,0,0-4.9-3.52c-4.07,0-5.73,3.7-5.73,7.43s1.58,7.42,5.83,7.42a4.73,4.73,0,0,0,4.78-3.42Z"/><path d="M75.51,49V29.5h2.32V49Z"/><path d="M91.25,45c0,1.3,0,3.12,0,3.91H89a18.17,18.17,0,0,1-.09-2,4,4,0,0,1-4.07,2.33c-2.26,0-4.44-1.13-4.44-4.92V35.52h2.3v8.34c0,1.76.56,3.39,2.78,3.39,2.47,0,3.43-1.37,3.43-4.73v-7h2.32Z"/><path d="M93.9,29.5h2.32v7.93c.6-1.14,1.84-2.23,4.28-2.23,3.37,0,5.5,2.78,5.5,6.76s-2,7.31-5.85,7.31c-2.15,0-3.27-.79-4-2.09,0,.68,0,1.41-.09,1.77H93.87c0-1.5,0-3,0-4.51ZM103.61,42c0-2.9-1.32-4.84-3.65-4.84-2.85,0-3.86,1.91-3.86,5.11,0,2.8.89,5,3.75,5C102.22,47.31,103.61,45.28,103.61,42Z"/></svg>