<?xml version="1.0" encoding="UTF-8" standalone="no"?>
<svg
   xmlns:dc="http://purl.org/dc/elements/1.1/"
   xmlns:cc="http://creativecommons.org/ns#"
   xmlns:rdf="http://www.w3.org/1999/02/22-rdf-syntax-ns#"
   xmlns:svg="http://www.w3.org/2000/svg"
   xmlns="http://www.w3.org/2000/svg"
   xmlns:sodipodi="http://sodipodi.sourceforge.net/DTD/sodipodi-0.dtd"
   xmlns:inkscape="http://www.inkscape.org/namespaces/inkscape"
   width="265mm"
   height="77mm"
   viewBox="0 0 265 77"
   version="1.1"
   id="svg1500"
   inkscape:version="1.0.1 (3bc2e813f5, 2020-09-07)"
   sodipodi:docname="SwecoLogo.svg">
  <defs
     id="defs1494" />
  <sodipodi:namedview
     id="base"
     pagecolor="#ffffff"
     bordercolor="#666666"
     borderopacity="1.0"
     inkscape:pageopacity="0.0"
     inkscape:pageshadow="2"
     inkscape:zoom="0.7"
     inkscape:cx="573.97679"
     inkscape:cy="457.05292"
     inkscape:document-units="mm"
     inkscape:current-layer="layer1"
     inkscape:document-rotation="0"
     showgrid="false"
     inkscape:pagecheckerboard="true"
     inkscape:window-width="1920"
     inkscape:window-height="1017"
     inkscape:window-x="-8"
     inkscape:window-y="-8"
     inkscape:window-maximized="1" />
  <metadata
     id="metadata1497">
    <rdf:RDF>
      <cc:Work
         rdf:about="">
        <dc:format>image/svg+xml</dc:format>
        <dc:type
           rdf:resource="http://purl.org/dc/dcmitype/StillImage" />
        <dc:title></dc:title>
      </cc:Work>
    </rdf:RDF>
  </metadata>
  <g
     inkscape:label="Vrstva 1"
     inkscape:groupmode="layer"
     id="layer1">
    <g
       style="fill:#000000"
       id="g4558"
       inkscape:label="ink_ext_XXXXXX"
       transform="matrix(0.93338873,0,0,-0.93338873,0.20848183,76.97293)">
      <g
         style="fill:#000000"
         id="g4556"
         transform="scale(0.1)">
        <path
           d="m 2834.65,479.105 -266.06,0.426 171.8,171.793 -61.64,60.387 -211.74,-211.66 -212.92,215.242 -60.53,-61.719 174.62,-174.469 h -265.4 v -80.242 h 264.16 L 2163.3,197.535 V 3.21094 h 609.68 V 197.535 l -203.57,201.328 h 265.24 z M 2686.89,161.48 V 89.3242 H 2249.4 V 161.48 l 217.61,217.528 219.88,-217.528"
           style="fill:#000000;fill-opacity:1;fill-rule:evenodd;stroke:none"
           id="path4542"
           inkscape:connector-curvature="0" />
        <path
           d="m 2554.89,738.063 c 0,-47.793 -38.68,-86.438 -86.36,-86.438 -47.7,0 -86.38,38.645 -86.38,86.438 0,47.695 38.68,86.308 86.38,86.308 47.68,0 86.36,-38.613 86.36,-86.308"
           style="fill:#000000;fill-opacity:1;fill-rule:evenodd;stroke:none"
           id="path4544"
           inkscape:connector-curvature="0" />
        <path
           d="m 1753.32,68.6055 c 57.13,0 76.23,53.2965 76.23,110.4685 0,61.059 -19.1,110.61 -76.23,110.61 -57.24,0 -80.07,-49.551 -80.07,-110.61 0,-57.172 22.83,-110.4685 80.07,-110.4685 m 0,289.5855 c 114.32,0 175.27,-64.761 175.27,-179.117 C 1928.59,68.6055 1867.64,0 1753.32,0 1638.95,0 1578,68.6055 1578,179.074 c 0,114.356 60.95,179.117 175.32,179.117"
           style="fill:#000000;fill-opacity:1;fill-rule:evenodd;stroke:none"
           id="path4546"
           inkscape:connector-curvature="0" />
        <path
           d="m 1410.34,358.191 c 34.21,0 68.56,-7.558 102.82,-15.214 l -7.67,-76.196 c -30.47,15.211 -60.94,22.903 -91.54,22.903 -64.68,0 -110.42,-45.766 -110.42,-110.61 0,-68.605 49.57,-110.4685 118.13,-110.4685 30.54,0 61.02,7.6523 87.67,19 l 3.83,-72.3946 C 1486.46,7.66016 1455.97,0 1410.34,0 c -95.38,0 -202.13,45.7344 -202.13,179.074 0,122.043 87.72,179.117 202.13,179.117"
           style="fill:#000000;fill-opacity:1;fill-rule:evenodd;stroke:none"
           id="path4548"
           inkscape:connector-curvature="0" />
        <path
           d="M 887.996,354.516 H 1131.92 V 289.684 H 975.699 V 217.168 H 1120.49 V 148.551 H 975.699 V 72.3828 H 1135.75 V 3.875 H 887.996 v 350.641"
           style="fill:#000000;fill-opacity:1;fill-rule:evenodd;stroke:none"
           id="path4550"
           inkscape:connector-curvature="0" />
        <path
           d="m 323.941,354.516 h 95.254 L 461.059,87.6055 h 3.894 L 510.695,354.516 H 628.836 L 678.355,87.6055 724.098,354.516 h 91.496 L 735.527,3.875 H 617.398 L 567.891,274.469 522.145,3.875 H 400.219 l -76.278,350.641"
           style="fill:#000000;fill-opacity:1;fill-rule:evenodd;stroke:none"
           id="path4552"
           inkscape:connector-curvature="0" />
        <path
           d="m 152.402,358.191 c 34.305,0 64.848,-3.675 91.496,-11.433 l -7.671,-72.289 c -22.825,11.304 -49.52,15.215 -76.168,15.215 -22.871,0 -64.8481,0 -64.8481,-30.563 0,-57.074 167.7731,-18.988 167.7731,-144.68 C 262.984,22.7422 186.707,0 106.641,0 76.2188,0 34.2578,3.875 3.82813,15.2109 l 7.65627,76.2696 c 26.6484,-11.4375 57.0781,-22.875 95.1566,-22.875 30.547,0 57.191,7.6523 57.191,34.3005 C 163.832,167.746 0,125.68 0,251.566 0,335.422 83.7734,358.191 152.402,358.191"
           style="fill:#000000;fill-opacity:1;fill-rule:evenodd;stroke:none"
           id="path4554"
           inkscape:connector-curvature="0" />
      </g>
    </g>
  </g>
</svg>
