<?xml version="1.0" encoding="UTF-8"?>
<svg xmlns="http://www.w3.org/2000/svg" xmlns:xlink="http://www.w3.org/1999/xlink" width="558.73pt" height="102.49pt" viewBox="0 0 558.73 102.49" version="1.1">
<defs>
<clipPath id="clip1">
  <path d="M 517 1 L 558.730469 1 L 558.730469 47 L 517 47 Z M 517 1 "/>
</clipPath>
<clipPath id="clip2">
  <path d="M 58 33 L 109 33 L 109 102.488281 L 58 102.488281 Z M 58 33 "/>
</clipPath>
</defs>
<g id="surface1">
<path style=" stroke:none;fill-rule:nonzero;fill:rgb(28.199768%,12.199402%,43.099976%);fill-opacity:1;" d="M 182.03125 2.671875 L 138.113281 2.671875 L 137.871094 9.210938 L 156.527344 9.210938 L 156.527344 45.207031 L 163.496094 45.207031 L 163.496094 9.210938 L 182.191406 9.210938 "/>
<path style=" stroke:none;fill-rule:nonzero;fill:rgb(28.199768%,12.199402%,43.099976%);fill-opacity:1;" d="M 250.761719 37.328125 C 248.085938 39 244.234375 39.960938 240.199219 39.960938 C 230.925781 39.960938 226.226563 36.074219 226.226563 28.402344 C 226.226563 20.847656 230.777344 17.171875 240.144531 17.171875 C 243.695313 17.171875 247.363281 17.925781 250.46875 19.289063 L 251.84375 19.890625 L 252.449219 13.773438 L 251.699219 13.460938 C 247.984375 11.929688 243.714844 11.121094 239.339844 11.121094 C 226.714844 11.121094 219.472656 17.441406 219.472656 28.460938 C 219.472656 39.613281 226.691406 46.015625 239.285156 46.015625 C 244.15625 46.015625 249.039063 44.785156 252.34375 42.730469 L 252.933594 42.359375 L 252.214844 36.417969 "/>
<path style=" stroke:none;fill-rule:nonzero;fill:rgb(28.199768%,12.199402%,43.099976%);fill-opacity:1;" d="M 279.097656 11.066406 C 274.140625 11.066406 269.527344 12.507813 266.089844 15.085938 L 266.144531 12.960938 L 266.144531 0.300781 L 259.554688 0.945313 L 259.554688 45.203125 L 266.144531 45.203125 L 266.144531 21.703125 C 268.15625 19.460938 272.714844 17.28125 277.910156 17.28125 C 285.6875 17.28125 289.464844 20.25 289.464844 26.359375 L 289.464844 45.203125 L 296.058594 45.203125 L 296.058594 26.359375 C 296.058594 16.5 290.035156 11.066406 279.097656 11.066406 "/>
<path style=" stroke:none;fill-rule:nonzero;fill:rgb(28.199768%,12.199402%,43.099976%);fill-opacity:1;" d="M 323.105469 11.066406 C 317.878906 11.066406 312.898438 12.671875 309.414063 15.414063 L 308.652344 11.46875 L 303.667969 11.914063 L 303.667969 45.203125 L 310.257813 45.203125 L 310.257813 21.714844 C 312.953125 18.804688 318.125 17.28125 321.972656 17.28125 C 329.890625 17.28125 333.578125 20.183594 333.578125 26.414063 L 333.578125 45.203125 L 340.121094 45.203125 L 340.121094 26.359375 C 340.121094 16.5 334.074219 11.066406 323.105469 11.066406 "/>
<path style=" stroke:none;fill-rule:nonzero;fill:rgb(28.199768%,12.199402%,43.099976%);fill-opacity:1;" d="M 347.835938 45.207031 L 354.429688 45.207031 L 354.429688 11.519531 L 347.835938 12.003906 Z M 347.835938 45.207031 "/>
<path style=" stroke:none;fill-rule:nonzero;fill:rgb(28.199768%,12.199402%,43.099976%);fill-opacity:1;" d="M 395.773438 28.675781 C 395.773438 36.375 391.273438 40.121094 382.011719 40.121094 C 375.15625 40.121094 371.5625 37.4375 369.921875 35.636719 L 369.921875 21.734375 C 372.816406 18.738281 376.96875 17.28125 382.605469 17.28125 C 391.464844 17.28125 395.773438 21.007813 395.773438 28.675781 M 383.519531 11.066406 C 377.78125 11.066406 372.886719 12.539063 369.242188 15.351563 L 368.320313 11.707031 L 363.113281 12.050781 L 363.113281 53.386719 L 369.921875 53.386719 L 369.921875 44.152344 L 369.898438 42.175781 C 373.144531 44.722656 377.535156 46.015625 382.980469 46.015625 C 395.550781 46.015625 402.472656 39.796875 402.472656 28.515625 C 402.472656 17.097656 395.921875 11.066406 383.519531 11.066406 "/>
<path style=" stroke:none;fill-rule:nonzero;fill:rgb(28.199768%,12.199402%,43.099976%);fill-opacity:1;" d="M 482.835938 36.980469 L 461.707031 2.671875 L 454.304688 2.671875 L 454.304688 45.207031 L 460.839844 45.207031 L 460.839844 13.703125 L 480.289063 45.207031 L 485.164063 45.207031 L 504.429688 13.792969 L 504.679688 13.378906 L 504.664063 45.207031 L 511.203125 45.207031 L 511.203125 2.671875 L 503.960938 2.671875 "/>
<g clip-path="url(#clip1)" clip-rule="nonzero">
<path style=" stroke:none;fill-rule:nonzero;fill:rgb(28.199768%,12.199402%,43.099976%);fill-opacity:1;" d="M 557.632813 36.328125 L 556.371094 36.875 C 552.238281 38.671875 547.898438 39.582031 543.464844 39.582031 C 530.011719 39.582031 524.273438 34.855469 524.273438 23.777344 C 524.273438 13.144531 530.09375 8.402344 543.144531 8.402344 C 547.675781 8.402344 552.597656 9.261719 556.304688 10.699219 L 557.570313 11.1875 L 558.554688 4.785156 L 557.738281 4.46875 C 554.570313 3.242188 548.632813 1.917969 543.089844 1.917969 C 521.554688 1.917969 517.03125 13.808594 517.03125 23.777344 C 517.03125 38.359375 525.988281 46.066406 542.925781 46.066406 C 548.875 46.066406 554.605469 44.3125 557.984375 42.675781 L 558.726563 42.3125 "/>
</g>
<path style=" stroke:none;fill-rule:nonzero;fill:rgb(28.199768%,12.199402%,43.099976%);fill-opacity:1;" d="M 441.929688 20.433594 L 416.460938 20.433594 L 416.460938 9.265625 L 447.207031 9.265625 L 447.046875 2.671875 L 409.492188 2.671875 L 409.4375 45.203125 L 416.460938 45.203125 L 416.460938 27.023438 L 442.089844 27.023438 "/>
<path style=" stroke:none;fill-rule:nonzero;fill:rgb(28.199768%,12.199402%,43.099976%);fill-opacity:1;" d="M 184.367188 24.785156 C 185.34375 19.726563 189.816406 16.960938 197.105469 16.960938 C 204.019531 16.960938 208.738281 19.992188 209.476563 24.785156 Z M 197.054688 11.066406 C 185.246094 11.066406 177.613281 17.535156 177.613281 27.542969 C 177.613281 35.96875 181.324219 46.011719 198.988281 46.011719 C 204.53125 46.011719 209.21875 44.933594 213.746094 42.609375 L 214.449219 42.25 L 213.570313 36.644531 L 212.28125 37.195313 C 207.964844 39.042969 203.898438 39.90625 199.476563 39.90625 C 190.550781 39.90625 185.585938 36.976563 184.480469 30.886719 L 215.226563 30.886719 L 215.640625 28.972656 C 215.800781 28.410156 215.84375 27.4375 215.84375 26.953125 C 215.84375 17.449219 208.292969 11.066406 197.054688 11.066406 "/>
<path style=" stroke:none;fill-rule:nonzero;fill:rgb(28.199768%,12.199402%,43.099976%);fill-opacity:1;" d="M 354.914063 3.707031 C 354.914063 5.753906 353.257813 7.414063 351.210938 7.414063 C 349.164063 7.414063 347.507813 5.753906 347.507813 3.707031 C 347.507813 1.664063 349.164063 0.00390625 351.210938 0.00390625 C 353.257813 0.00390625 354.914063 1.664063 354.914063 3.707031 "/>
<g clip-path="url(#clip2)" clip-rule="nonzero">
<path style=" stroke:none;fill-rule:nonzero;fill:rgb(84.298706%,15.699768%,18.798828%);fill-opacity:1;" d="M 58.597656 64.769531 L 58.597656 100 C 58.597656 102.214844 61.273438 103.324219 62.835938 101.757813 L 107.621094 56.964844 C 109.074219 55.511719 109.074219 53.152344 107.621094 51.699219 L 89.644531 33.722656 "/>
</g>
<path style=" stroke:none;fill-rule:nonzero;fill:rgb(0%,70.199585%,92.498779%);fill-opacity:1;" d="M 114.695313 2.671875 L 58.597656 2.671875 L 89.644531 33.71875 L 116.453125 6.914063 C 118.015625 5.347656 116.90625 2.671875 114.695313 2.671875 "/>
<path style=" stroke:none;fill-rule:nonzero;fill:rgb(0%,70.199585%,92.498779%);fill-opacity:1;" d="M 58.597656 64.769531 L 58.597656 2.671875 L 2.488281 2.671875 C 0.277344 2.671875 -0.832031 5.347656 0.730469 6.914063 "/>
<path style=" stroke:none;fill-rule:nonzero;fill:rgb(28.199768%,12.199402%,43.099976%);fill-opacity:1;" d="M 89.644531 33.71875 L 58.59375 2.671875 L 58.59375 64.765625 "/>
</g>
</svg>
