<svg width="64" height="64" viewBox="0 0 64 64" fill="none" xmlns="http://www.w3.org/2000/svg">
  <!-- Network/Influence - Group of people with engagement -->
  <circle cx="32" cy="32" r="28" stroke="#1e3a8a" stroke-width="2.5" fill="none"/>
  <!-- People figures in semicircle -->
  <circle cx="20" cy="28" r="2.5" fill="#1e3a8a"/>
  <path d="M20 30.5 L20 36" stroke="#1e3a8a" stroke-width="2" stroke-linecap="round"/>
  <circle cx="28" cy="24" r="2.5" fill="#1e3a8a"/>
  <path d="M28 26.5 L28 32" stroke="#1e3a8a" stroke-width="2" stroke-linecap="round"/>
  <circle cx="36" cy="24" r="2.5" fill="#1e3a8a"/>
  <path d="M36 26.5 L36 32" stroke="#1e3a8a" stroke-width="2" stroke-linecap="round"/>
  <circle cx="44" cy="28" r="2.5" fill="#1e3a8a"/>
  <path d="M44 30.5 L44 36" stroke="#1e3a8a" stroke-width="2" stroke-linecap="round"/>
  <circle cx="24" cy="38" r="2.5" fill="#1e3a8a"/>
  <path d="M24 40.5 L24 46" stroke="#1e3a8a" stroke-width="2" stroke-linecap="round"/>
  <circle cx="32" cy="40" r="2.5" fill="#1e3a8a"/>
  <path d="M32 42.5 L32 48" stroke="#1e3a8a" stroke-width="2" stroke-linecap="round"/>
  <circle cx="40" cy="38" r="2.5" fill="#1e3a8a"/>
  <path d="M40 40.5 L40 46" stroke="#1e3a8a" stroke-width="2" stroke-linecap="round"/>
  <!-- Speech bubbles with hearts -->
  <circle cx="18" cy="22" r="5" fill="#f02c00" opacity="0.9"/>
  <path d="M18 20 L18 24 M16 22 L20 22" stroke="#ffffff" stroke-width="1.5" stroke-linecap="round"/>
  <circle cx="46" cy="22" r="5" fill="#fbbf24" opacity="0.9"/>
  <path d="M46 20 L46 24 M44 22 L48 22" stroke="#ffffff" stroke-width="1.5" stroke-linecap="round"/>
</svg>
