<svg id="Layer_1" data-name="Layer 1" xmlns="http://www.w3.org/2000/svg" viewBox="0 0 60 60"><defs><style>.cls-1{fill:#4374b9;}</style></defs><path class="cls-1" d="M30.27,24.59H42.88a1.1,1.1,0,0,1,1,1.86c-.22.29-.38.62-.58.92l-5.13,8L32,45,25.56,55c-.79,1.24-1.59,2.47-2.39,3.71a1.1,1.1,0,0,1-1.37.41,1.07,1.07,0,0,1-.61-1.26c.28-1.12.58-2.24.86-3.36,1.33-5.35,2.68-10.7,4-16.06.33-1.32.59-2.66.88-4,0-.15,0-.31.06-.53H17a1.12,1.12,0,0,1-1.12-.56,1.19,1.19,0,0,1,.13-1.25L22,22.55l7.26-11.8,5.72-9.3A1.1,1.1,0,0,1,36.44.88,1.13,1.13,0,0,1,37,2.34L32.34,17.75Zm-5.2,27,.09,0,16-24.87H29a1.14,1.14,0,0,1-1.16-1.6l4-13.12c.21-.69.41-1.39.61-2.08l-.09,0L18.82,31.81h9.51c.83,0,1.18.39,1,1.19s-.26,1.31-.41,2L26.58,45.08Q25.82,48.34,25.07,51.59Z"/></svg>