<svg id="Layer_1" data-name="Layer 1" xmlns="http://www.w3.org/2000/svg" viewBox="0 0 60 60"><defs><style>.cls-1{fill:#4374b9;}</style></defs><path class="cls-1" d="M32.16,53.11c0-1,0-2,0-3,0-.16-.27-.36-.46-.46a2.4,2.4,0,1,1,3-3.6,2.38,2.38,0,0,1-.93,3.6.65.65,0,0,0-.46.72q0,1.1,0,2.19c0,.41.14.55.53.52s.73,0,1.1,0a1.8,1.8,0,0,0,1.91-2V29.87c0-.37.14-.65.56-.64s.52.28.52.63V51a2.85,2.85,0,0,1-3.14,3.14H33.24c.08,1.15-.18,2.26.26,3.33a1.09,1.09,0,0,0,1.14.76c2.46,0,4.92,0,7.38,0A2.1,2.1,0,0,0,44.25,56q0-12.33,0-24.67c0-.17,0-.34,0-.53l-.52-.11A2.66,2.66,0,0,1,41.63,28q0-6.57,0-13.14a2.56,2.56,0,0,1,2-2.58c.45-.11.5-.35.5-.73,0-2.23,0-4.45,0-6.68,0-.16,0-.35,0-.45s.31-.39.47-.39a.76.76,0,0,1,.5.36c.09.12,0,.34,0,.51v7.21l.58.18a2.57,2.57,0,0,1,1.86,2.26c0,.21,0,.42,0,.63V27.73a2.67,2.67,0,0,1-2,2.93.72.72,0,0,0-.3.41,2.16,2.16,0,0,0,0,.57q0,11.86,0,23.75a3.94,3.94,0,0,1-.73,2.78,5.31,5.31,0,0,0,.53.06c2.55,0,5.11,0,7.66,0a1,1,0,0,0,1-.66A5.68,5.68,0,0,0,54.12,56c0-8.21,0-16.41,0-24.61,0-.4-.08-.61-.51-.72a2.54,2.54,0,0,1-2-2.54q0-6.61,0-13.25a2.56,2.56,0,0,1,2-2.53.56.56,0,0,0,.5-.66c0-2.25,0-4.5,0-6.75,0-.19,0-.43.07-.56s.41-.31.55-.26a.69.69,0,0,1,.4.52c.05.9,0,1.81,0,2.71v4.84l.59.18a2.6,2.6,0,0,1,1.85,2.32,7.3,7.3,0,0,1,0,.81q0,6,0,12.05c0,1.95-.52,2.68-2.46,3.3v.7c0,8.14,0,16.29,0,24.43a6.23,6.23,0,0,1-.45,2.17,1.83,1.83,0,0,1-1.9,1.21H10.39A3.15,3.15,0,0,1,7,55.89c0-.4,0-.81,0-1.21s-.11-.56-.52-.53-.93,0-1.39,0a2.75,2.75,0,0,1-2.7-2.56c0-.23,0-.46,0-.69v-47c0-1.75.72-2.82,2.17-3.17A3.9,3.9,0,0,1,5.44.68H34.78a2.83,2.83,0,0,1,3.08,3.08V26.7c0,.16.06.35,0,.46s-.34.46-.51.46-.41-.26-.53-.46,0-.38,0-.57V3.88c0-1.5-.65-2.15-2.13-2.15q-14.55,0-29.11,0c-1.46,0-2.13.68-2.13,2.16v47c0,1.62.64,2.25,2.28,2.25C7,53.11,7,53.11,7,51.8v-.52c0-.78.09-1.45-.89-1.88a2.13,2.13,0,0,1-.82-2.73,2.34,2.34,0,0,1,2.45-1.52A2.37,2.37,0,0,1,9.85,47a2.31,2.31,0,0,1-1.27,2.59.82.82,0,0,0-.56,1,17.2,17.2,0,0,1,0,1.9c0,.53.17.64.66.63H32.16Zm-.1,1H9.65c-.51,0-1.24-.16-1.48.11S8,55.28,8,55.81a2.14,2.14,0,0,0,2.4,2.42H32l.45,0ZM42.74,18.33v5.06h3.77V18.33Zm13.81,0H52.76v5h3.83V18.71A2.94,2.94,0,0,0,56.55,18.34ZM42.7,24.54v.63c0,1,0,2.07,0,3.1A1.52,1.52,0,0,0,44,29.62a4.52,4.52,0,0,0,1,.06A1.63,1.63,0,0,0,46.56,28c0-1,0-2,0-3a3.32,3.32,0,0,0-.06-.44Zm10,0c0,1.26,0,2.45,0,3.63a1.92,1.92,0,0,0,.54,1.09,2,2,0,0,0,1.9.38,1.46,1.46,0,0,0,1.34-1.29c.07-1.26,0-2.52,0-3.81Zm3.86-7.3c0-.76,0-1.45,0-2.14a1.65,1.65,0,0,0-1-1.7,2.2,2.2,0,0,0-2.36.37,1.85,1.85,0,0,0-.45,1,16.82,16.82,0,0,0,0,2.13c0,.13.15.36.23.36C54.16,17.25,55.34,17.24,56.59,17.24Zm-10,0v-2a3.62,3.62,0,0,0,0-.57,1.7,1.7,0,0,0-1.73-1.39c-1.13,0-2,.4-2.05,1.26a24.25,24.25,0,0,0,0,2.7ZM6.17,47.52a1.35,1.35,0,0,0,1.31,1.34A1.38,1.38,0,0,0,8.83,47.5a1.36,1.36,0,0,0-1.34-1.31A1.35,1.35,0,0,0,6.17,47.52Zm27.85,0a1.32,1.32,0,1,0-2.63,0,1.32,1.32,0,1,0,2.63,0Z"/><path class="cls-1" d="M20,48A8.4,8.4,0,0,1,16.71,32c.81-.34,1.1-.71,1-1.57a2.11,2.11,0,0,1,1.38-2.13,2.27,2.27,0,0,1,2.53.35,2.3,2.3,0,0,1,.84,2.11c0,.66.2.9.79,1.14A8.4,8.4,0,0,1,20,48Zm2.47-15.31V39.3c0,.73-.16.87-.89.87H18.57c-.72,0-.85-.12-.85-.83V33.4c0-.22,0-.43,0-.66-2.57.66-5,3.8-4.87,6.35h1.59c.38,0,.78,0,.79.52s-.41.56-.81.57H12.8A7.39,7.39,0,0,0,20.41,47c3.76-.24,7.25-3.62,7-6.82H25.71c-.37,0-.71-.08-.71-.55s.34-.54.72-.54h1.64C27.58,36.67,25.09,33.41,22.51,32.73ZM18.8,39.05h2.62c0-2.95,0-5.87,0-8.78A1.27,1.27,0,0,0,20,29.11a1.36,1.36,0,0,0-1.19,1.51v7.89C18.76,38.68,18.78,38.85,18.8,39.05Z"/><path class="cls-1" d="M20.56,18.29c-2.34,0-4.68,0-7,0a5.55,5.55,0,0,1-5.65-5.48,12.37,12.37,0,0,1,.18-2.92A5.44,5.44,0,0,1,13.4,5.64q7.17,0,14.35,0a5.53,5.53,0,0,1,5.48,5.48,12.28,12.28,0,0,1-.2,3,5.46,5.46,0,0,1-5.32,4.2C25.33,18.3,22.94,18.29,20.56,18.29Zm0-1c2.31,0,4.61,0,6.92,0a4.53,4.53,0,0,0,4.57-3.76,12.17,12.17,0,0,0,.07-2.18,4.51,4.51,0,0,0-4.52-4.62q-7.08-.06-14.17,0A4.49,4.49,0,0,0,9,10.44a10.54,10.54,0,0,0-.08,2,4.57,4.57,0,0,0,4.81,4.86Z"/><path class="cls-1" d="M20.49,23.25H14c-.16,0-.35.05-.45,0s-.39-.34-.4-.53.21-.35.38-.46.3,0,.45,0h13.2c.16,0,.35,0,.45,0s.38.32.38.48a.72.72,0,0,1-.37.5,1.28,1.28,0,0,1-.56,0Z"/><path class="cls-1" d="M32.75,21h1.73c.44,0,.62.21.62.63,0,.75,0,1.5,0,2.25a.58.58,0,0,1-.66.67H30.94c-.43,0-.63-.22-.63-.65v-2.3a.53.53,0,0,1,.6-.6ZM34,23.41a9.45,9.45,0,0,0,0-1.08c0-.12-.17-.31-.28-.31-.75,0-1.51,0-2.29,0v1.41Z"/><path class="cls-1" d="M7.49,24.51c-.55,0-1.11,0-1.66,0s-.73-.18-.73-.66V21.61c0-.45.21-.66.68-.66,1.15,0,2.3,0,3.44,0,.47,0,.67.2.66.66v2.24a.56.56,0,0,1-.66.66C8.64,24.5,8.07,24.51,7.49,24.51ZM6.2,23.38H8.84c0-.39,0-.72,0-1,0-.12-.14-.32-.22-.32-.8,0-1.6,0-2.41,0Z"/><path class="cls-1" d="M20.09,12.21h7.49c.15,0,.34-.06.45,0s.43.33.46.53-.26.36-.45.47a1.22,1.22,0,0,1-.51,0H12.38c-.37,0-.68-.07-.68-.51s.29-.54.67-.53h7.72Z"/></svg>