<svg id="Layer_1" data-name="Layer 1" xmlns="http://www.w3.org/2000/svg" viewBox="0 0 60 60"><defs><style>.cls-1{fill:#4374b9;}</style></defs><path class="cls-1" d="M23.68,22.07V14.63H23.4a3.2,3.2,0,0,1-1.34-.18,2.61,2.61,0,0,1-1.65-2.39V9.82A2.58,2.58,0,0,1,23,7.22H37a2.58,2.58,0,0,1,2.57,2.07,3.41,3.41,0,0,1,0,.55c0,.72,0,1.44,0,2.15A2.59,2.59,0,0,1,37,14.63h-.64v7.44a5.43,5.43,0,0,1,.58.13,3.7,3.7,0,0,1-.46,7.22c-.15,0-.13.11-.13.2v7.26h4.08a6,6,0,0,1,.14-.61,3.7,3.7,0,0,1,7.21.48c0,.1,0,.14.15.14h4l.08,0v-.29a3.12,3.12,0,0,1,.23-1.45,2.49,2.49,0,0,1,2.29-1.51c.8,0,1.6,0,2.4,0A2.55,2.55,0,0,1,59.4,36c0,.14,0,.28,0,.42V50.09a2.55,2.55,0,0,1-1.49,2.43,2.44,2.44,0,0,1-1.1.26H54.58A2.6,2.6,0,0,1,52,50.19v-.68H47.94c-.15,0-.19,0-.22.18a3.7,3.7,0,0,1-7.32-.06s0-.07,0-.11H19.61a4,4,0,0,1-.42,1.31,3.71,3.71,0,0,1-6.93-1.17c0-.1,0-.15-.15-.15H8c0,.22,0,.44,0,.66a4.06,4.06,0,0,1-.17.91,2.55,2.55,0,0,1-2.38,1.7H3.14A2.59,2.59,0,0,1,.58,50.2v-14a2.57,2.57,0,0,1,2.57-2.59H5.42A2.58,2.58,0,0,1,8,36.22v.67h4.07c.14,0,.19,0,.21-.18a3.71,3.71,0,0,1,7.33.12.08.08,0,0,0,0,0h4.07s0-.11,0-.17V29.63c0-.14,0-.19-.18-.22a3.7,3.7,0,0,1,.08-7.32ZM19.63,48.15H40.35V38.24H19.63ZM30,13.29h6.94A1.25,1.25,0,0,0,38.25,12V9.89A1.27,1.27,0,0,0,36.9,8.55H23.07a1.28,1.28,0,0,0-1.33,1.33v2.06a1.27,1.27,0,0,0,1.35,1.35ZM1.91,43.19c0,2.31,0,4.61,0,6.92a1.26,1.26,0,0,0,1.33,1.34H5.33a1.28,1.28,0,0,0,1.33-1.33V36.26a1.27,1.27,0,0,0-1.31-1.32H3.22a1.59,1.59,0,0,0-.43.06,1.23,1.23,0,0,0-.87,1.28Q1.9,39.74,1.91,43.19Zm56.17,0v-7a1.26,1.26,0,0,0-1.31-1.31H54.66a1.27,1.27,0,0,0-1.33,1.34v13.8a1.28,1.28,0,0,0,1.37,1.37h2a1.27,1.27,0,0,0,1.35-1.36ZM25,14.64V22H35v-7.4Zm0,14.82v7.42H35V29.66c0-.15,0-.2-.19-.2H25ZM13.55,43.19h0c0,2,0,4,0,6a2.31,2.31,0,0,0,1.54,2.15,2.36,2.36,0,0,0,2.57-.62,2.62,2.62,0,0,0,.63-1.86c0-3.69,0-7.38,0-11.06a4.49,4.49,0,0,0-.05-.9,2.37,2.37,0,0,0-4.69.51ZM30,28.13h0c2,0,4,0,5.95,0a2.37,2.37,0,1,0-.13-4.73c-3.74,0-7.49,0-11.24,0-.17,0-.35,0-.52,0a2.37,2.37,0,1,0,.16,4.74ZM46.44,43.18V37.32a2.37,2.37,0,1,0-4.74,0V48.65a4.1,4.1,0,0,0,0,.86,2.37,2.37,0,0,0,4.69-.46Zm-34.23,5V38.23H8v9.92Zm35.58-9.92v9.92H52V38.23Z"/></svg>