<svg id="Layer_1" data-name="Layer 1" xmlns="http://www.w3.org/2000/svg" viewBox="0 0 60 60"><defs><style>.cls-1{fill:#4374b9;}</style></defs><path class="cls-1" d="M33.69,35.66a.67.67,0,0,1-.65-.39c-.41-.69-.82-1.37-1.22-2.06a.35.35,0,0,0-.41-.21,11,11,0,0,1-2.86,0,.29.29,0,0,0-.34.16c-.41.71-.82,1.4-1.24,2.09a.65.65,0,0,1-1,.32l-3.27-1.36a.65.65,0,0,1-.46-.9c.2-.78.39-1.55.6-2.32a.31.31,0,0,0-.13-.39,11.26,11.26,0,0,1-2-2,.28.28,0,0,0-.36-.13c-.78.21-1.57.4-2.35.6a.65.65,0,0,1-.9-.46l-1.37-3.3a.64.64,0,0,1,.31-.92l2.06-1.22a.36.36,0,0,0,.22-.41,10.65,10.65,0,0,1,0-2.82.34.34,0,0,0-.19-.4c-.69-.39-1.38-.81-2.06-1.21a.65.65,0,0,1-.32-.94c.45-1.1.9-2.2,1.36-3.3a.65.65,0,0,1,.9-.45l2.35.61a.29.29,0,0,0,.35-.12A10.81,10.81,0,0,1,22.75,12a.31.31,0,0,0,.13-.39c-.2-.77-.4-1.55-.59-2.32a.65.65,0,0,1,.45-.91L26,7.06a.65.65,0,0,1,1,.31c.41.68.81,1.36,1.21,2a.36.36,0,0,0,.41.22,10.65,10.65,0,0,1,2.82,0,.34.34,0,0,0,.41-.21c.4-.69.8-1.36,1.21-2a.65.65,0,0,1,1-.31l3.28,1.36a.64.64,0,0,1,.44.9c-.19.77-.39,1.55-.59,2.32a.32.32,0,0,0,.13.39,11,11,0,0,1,2,2,.3.3,0,0,0,.39.12l2.32-.6a.65.65,0,0,1,.89.44l1.38,3.33a.65.65,0,0,1-.31.92l-2,1.2a.38.38,0,0,0-.23.45,10.5,10.5,0,0,1,0,2.8.32.32,0,0,0,.19.39l2.06,1.22a.66.66,0,0,1,.33.94L42.89,28.6A.65.65,0,0,1,42,29l-2.38-.61a.26.26,0,0,0-.34.11,10.46,10.46,0,0,1-2.08,2.07.29.29,0,0,0-.11.36c.21.77.4,1.54.6,2.32a.66.66,0,0,1-.45.93L34,35.57A2.75,2.75,0,0,1,33.69,35.66ZM23.58,9.39c0,.11,0,.2.06.28.19.75.39,1.5.58,2.25a.62.62,0,0,1-.3.77,10.48,10.48,0,0,0-2.53,2.53.64.64,0,0,1-.82.3c-.74-.19-1.48-.37-2.22-.57-.19,0-.29,0-.37.17-.27.7-.57,1.4-.86,2.09-.07.17-.05.25.11.34.66.38,1.32.78,2,1.17a.65.65,0,0,1,.39.83,10.82,10.82,0,0,0,0,3.5.66.66,0,0,1-.39.86l-2,1.16a.22.22,0,0,0-.11.35c.28.66.57,1.33.83,2,.1.27.22.3.48.23.7-.2,1.4-.37,2.11-.55a.65.65,0,0,1,.86.32,10.81,10.81,0,0,0,2.48,2.48.67.67,0,0,1,.32.88c-.19.73-.37,1.46-.57,2.19-.05.19,0,.27.17.35.7.27,1.4.56,2.09.86.19.08.27,0,.36-.13.39-.67.79-1.33,1.18-2a.65.65,0,0,1,.77-.36,10.91,10.91,0,0,0,3.56,0,.66.66,0,0,1,.83.39c.39.65.78,1.31,1.16,2,.1.16.18.19.35.12.69-.3,1.39-.59,2.09-.87.2-.08.23-.18.18-.37-.2-.71-.38-1.44-.57-2.16a.68.68,0,0,1,.33-.91,10.24,10.24,0,0,0,2.44-2.43.7.7,0,0,1,.93-.34c.71.18,1.43.36,2.14.56.2.05.3,0,.38-.19.28-.7.58-1.39.86-2.09a1.94,1.94,0,0,0,.07-.22L40.78,23.9a.66.66,0,0,1-.38-.81,10.54,10.54,0,0,0,0-3.5.68.68,0,0,1,.42-.89c.65-.38,1.28-.77,1.93-1.14.18-.1.19-.19.12-.36-.3-.69-.58-1.38-.86-2.07a.25.25,0,0,0-.36-.19c-.76.21-1.53.4-2.3.6a.58.58,0,0,1-.67-.23A11.22,11.22,0,0,0,36,12.63a.58.58,0,0,1-.22-.68c.08-.33.16-.65.25-1l.39-1.57c-.82-.34-1.62-.68-2.43-1-.05,0-.18.07-.22.13-.4.66-.79,1.33-1.18,2a.67.67,0,0,1-.84.39,10.28,10.28,0,0,0-3.5,0,.68.68,0,0,1-.85-.4c-.39-.66-.77-1.32-1.17-2-.05-.07-.18-.16-.24-.13C25.19,8.72,24.4,9.06,23.58,9.39Z"/><path class="cls-1" d="M19.39,47.27h-4c-.22,0-.31,0-.35.28A5.38,5.38,0,1,1,15,45.36a.31.31,0,0,1,0,.08c.14.61.14.61.78.61h7.53c.23,0,.32-.05.36-.31a6.37,6.37,0,0,1,12.57-.23c.09.53.09.53.62.53h7.64c.26,0,.34-.07.39-.34a5.38,5.38,0,1,1,.26,2.84,7.43,7.43,0,0,1-.28-1.08c0-.15-.08-.21-.24-.21H36.55c-.18,0-.21.09-.24.24a6.37,6.37,0,0,1-12.58.28c-.09-.52-.09-.52-.63-.52Zm5.46-.61A5.15,5.15,0,1,0,30,41.51,5.16,5.16,0,0,0,24.85,46.66Zm29.52-.15a4.16,4.16,0,1,0-3.94,4.31A4.19,4.19,0,0,0,54.37,46.51Zm-44.6-4A4.16,4.16,0,1,0,14,46.63,4.18,4.18,0,0,0,9.77,42.5Z"/><path class="cls-1" d="M57.25,24.81l-.78-1.6-1.55.5c-.52.17-.66.13-1-.27a7.68,7.68,0,0,0-1.81-1.6.68.68,0,0,1-.39-.88c.09-.48.18-1,.28-1.45,0-.17,0-.24-.18-.29-.42-.13-.84-.27-1.26-.43-.17-.07-.24,0-.31.13-.22.45-.46.89-.68,1.34a.66.66,0,0,1-.74.43,7.89,7.89,0,0,0-2.65.17.6.6,0,0,1-.77-.46.61.61,0,0,1,.49-.73,8.31,8.31,0,0,1,2.38-.24.41.41,0,0,0,.48-.27c.21-.47.47-.93.7-1.39a.63.63,0,0,1,.86-.36l2.55.87a.63.63,0,0,1,.46.81c-.1.54-.2,1.09-.32,1.63a.3.3,0,0,0,.14.34c.48.41,1,.83,1.43,1.26a.31.31,0,0,0,.38.09l1.55-.5a.63.63,0,0,1,.87.37l1.14,2.32a.67.67,0,0,1-.28,1c-.42.29-.85.59-1.28.87a.32.32,0,0,0-.17.36c.05.63.09,1.26.11,1.9a.32.32,0,0,0,.19.31l1.49.76a.63.63,0,0,1,.34.88c-.28.83-.57,1.65-.85,2.48a.65.65,0,0,1-.85.5l-1.55-.31a.4.4,0,0,0-.42.16c-.39.47-.8.94-1.22,1.39a.34.34,0,0,0-.1.4c.18.51.35,1,.51,1.56a.62.62,0,0,1-.37.85l-2.42,1.18a.62.62,0,0,1-.88-.23c-.32-.47-.64-.93-.94-1.4a.3.3,0,0,0-.32-.14l-1.95.13a.37.37,0,0,0-.26.17c-.27.49-.52,1-.77,1.48a.63.63,0,0,1-.88.36L43.1,38.4a.59.59,0,0,1-.44-.76c.09-.54.19-1.07.3-1.61a.36.36,0,0,0-.16-.43c-.56-.49-1.09-1-1.64-1.51a1.3,1.3,0,0,1-.18-.23.61.61,0,0,1,1-.75,10.16,10.16,0,0,0,.7.76,15.41,15.41,0,0,0,1.27,1,.71.71,0,0,1,.36.88c-.09.47-.18.94-.28,1.41,0,.18,0,.27.18.32.48.15,1,.33,1.46.5.26-.5.51-1,.75-1.46s.39-.55.91-.5a7.71,7.71,0,0,0,2.44-.16.65.65,0,0,1,.82.31l.85,1.26c.1.14.18.17.33.09.4-.21.8-.4,1.2-.59.17-.07.19-.16.14-.31-.17-.48-.32-1-.48-1.45a.64.64,0,0,1,.24-.82,8,8,0,0,0,1.68-1.89.7.7,0,0,1,.89-.37c.47.09,1,.17,1.42.27.17,0,.25,0,.3-.16.13-.43.28-.85.43-1.27a.2.2,0,0,0-.13-.31c-.45-.22-.88-.47-1.33-.68a.67.67,0,0,1-.44-.76,8.12,8.12,0,0,0-.17-2.65.61.61,0,0,1,.29-.7Z"/><path class="cls-1" d="M2.38,30.71c.18.53.35,1,.54,1.54,0,.06.15.11.22.1.5-.08,1-.18,1.48-.28a.69.69,0,0,1,.87.37,7.57,7.57,0,0,0,1.65,1.87.67.67,0,0,1,.25.89c-.15.47-.29.93-.46,1.4-.06.17,0,.26.15.33.46.21.91.44,1.39.67l.9-1.32c.32-.48.43-.52,1-.41a7.68,7.68,0,0,0,2.44.13.67.67,0,0,1,.77.42L14.37,38c.53-.18,1-.35,1.55-.54.05,0,.1-.16.09-.24-.08-.48-.18-1-.28-1.44a.68.68,0,0,1,.38-.89A8,8,0,0,0,18,33.18a.63.63,0,0,1,.91-.16.62.62,0,0,1,.05.92,8.31,8.31,0,0,1-1.78,1.67A.33.33,0,0,0,17,36c.11.5.2,1,.3,1.52s0,.75-.53.92l-2.4.82a.65.65,0,0,1-1-.39c-.25-.47-.48-.95-.74-1.42a.43.43,0,0,0-.29-.18c-.63-.05-1.27-.07-1.9-.13a.34.34,0,0,0-.37.17c-.29.45-.6.89-.9,1.34a.64.64,0,0,1-.94.24L6,37.74a.64.64,0,0,1-.39-.91c.16-.51.32-1,.5-1.53a.31.31,0,0,0-.1-.38c-.41-.45-.83-.91-1.22-1.39a.38.38,0,0,0-.44-.15c-.49.11-1,.2-1.49.29a.66.66,0,0,1-.9-.51l-.83-2.43a.64.64,0,0,1,.38-.93c.47-.25,1-.5,1.43-.73a.35.35,0,0,0,.2-.34c0-.62.06-1.24.11-1.85a.37.37,0,0,0-.18-.4c-.45-.29-.88-.59-1.31-.89a.64.64,0,0,1-.27-.93c.39-.81.79-1.62,1.19-2.42a.61.61,0,0,1,.82-.34l1.6.52a.32.32,0,0,0,.36-.09c.46-.43.94-.86,1.43-1.26A.31.31,0,0,0,7,20.73c-.12-.54-.21-1.07-.31-1.61a.64.64,0,0,1,.5-.85l2.45-.84a.65.65,0,0,1,.92.36l.73,1.43a.33.33,0,0,0,.35.22c.77,0,1.53.12,2.3.19a1.05,1.05,0,0,1,.24.06.62.62,0,0,1,.42.73.61.61,0,0,1-.71.45c-.64-.08-1.28-.16-1.92-.21a4.21,4.21,0,0,0-.79,0,.67.67,0,0,1-.74-.42c-.22-.46-.46-.91-.69-1.36-.07-.14-.14-.18-.29-.13q-.64.24-1.29.45c-.16.05-.19.12-.16.27.1.53.19,1.06.3,1.58a.59.59,0,0,1-.29.68,7.91,7.91,0,0,0-2,1.82.59.59,0,0,1-.69.19c-.49-.16-1-.31-1.48-.48-.18-.06-.29-.06-.38.15-.17.4-.37.79-.57,1.17-.09.16,0,.24.09.33.44.28.86.58,1.29.87a.66.66,0,0,1,.3.75,7.58,7.58,0,0,0-.17,2.6.68.68,0,0,1-.43.76C3.41,30.17,2.92,30.43,2.38,30.71Z"/><path class="cls-1" d="M44.84,28.34a3.16,3.16,0,1,1,6.32,0,3.16,3.16,0,0,1-6.32,0ZM48,26.42a1.91,1.91,0,0,0-1.92,1.92A1.93,1.93,0,1,0,48,26.42Z"/><path class="cls-1" d="M15.16,28.35A3.16,3.16,0,1,1,12,25.19,3.15,3.15,0,0,1,15.16,28.35ZM12,26.42a1.93,1.93,0,1,0,1.9,1.94A1.91,1.91,0,0,0,12,26.42Z"/><path class="cls-1" d="M35.14,21.32A5.14,5.14,0,1,1,30,16.16,5.14,5.14,0,0,1,35.14,21.32Zm-1.22,0A3.92,3.92,0,1,0,30,25.23,3.93,3.93,0,0,0,33.92,21.3Z"/><path class="cls-1" d="M33.32,46.67A3.32,3.32,0,1,1,30,43.34,3.32,3.32,0,0,1,33.32,46.67ZM30,48.76a2.1,2.1,0,1,0-2.07-2.13A2.11,2.11,0,0,0,30,48.76Z"/><path class="cls-1" d="M50.22,44.37a2.3,2.3,0,1,1-2.31,2.3A2.3,2.3,0,0,1,50.22,44.37Zm0,3.36a1.07,1.07,0,1,0-1.07-1.07A1.06,1.06,0,0,0,50.22,47.73Z"/><path class="cls-1" d="M9.79,49a2.3,2.3,0,1,1,2.3-2.29A2.32,2.32,0,0,1,9.79,49Zm0-1.23a1.07,1.07,0,0,0,.08-2.14,1.07,1.07,0,0,0-.08,2.14Z"/></svg>