<svg id="Layer_1" data-name="Layer 1" xmlns="http://www.w3.org/2000/svg" viewBox="0 0 60 60"><defs><style>.cls-1{fill:none;stroke:#4374b9;stroke-miterlimit:10;stroke-width:1.3px;}.cls-2{fill:#fff;}.cls-3{fill:#4374b9;}</style></defs><polygon class="cls-1" points="40.22 29.2 38.18 19.08 29 14.36 19.59 18.6 17.03 28.6 23.26 36.84 33.58 37.1 40.22 29.2"/><path class="cls-1" d="M56.81,16.09,51.9,9.23A1,1,0,0,0,50.47,9l-12.29,10"/><path class="cls-2" d="M58.72,14.55A2.45,2.45,0,1,1,55.31,14,2.45,2.45,0,0,1,58.72,14.55Z"/><path class="cls-3" d="M59,14.36a2.77,2.77,0,1,0-.64,3.87A2.78,2.78,0,0,0,59,14.36Zm-4,2.85a2.12,2.12,0,1,1,3,.49,2.13,2.13,0,0,1-3-.49Z"/><path class="cls-1" d="M33,53.17l5.41-4.34a.49.49,0,0,0,.14-.58L33.47,37"/><path class="cls-2" d="M34.62,55A2.44,2.44,0,1,1,35,51.55,2.44,2.44,0,0,1,34.62,55Z"/><path class="cls-3" d="M34.83,55.24a2.77,2.77,0,1,0-3.9-.43,2.77,2.77,0,0,0,3.9.43Zm-3.06-3.81a2.12,2.12,0,1,1-.33,3,2.12,2.12,0,0,1,.33-3C32.68,50.69,30.86,52.16,31.77,51.43Z"/><path class="cls-1" d="M2.93,28.36l2.64,4.78a.47.47,0,0,0,.62.21L17,28.59"/><path class="cls-2" d="M.85,29.66a2.44,2.44,0,1,1,3.32,1A2.45,2.45,0,0,1,.85,29.66Z"/><path class="cls-3" d="M.57,29.82a2.77,2.77,0,1,0,1.09-3.76A2.77,2.77,0,0,0,.57,29.82C1.31,31.15-.17,28.48.57,29.82Zm4.28-2.36A2.12,2.12,0,1,1,2,26.62a2.13,2.13,0,0,1,2.88.84Z"/><line class="cls-1" x1="19.93" y1="18.45" x2="9.9" y2="7.16"/><path class="cls-2" d="M11.82,5.64a2.44,2.44,0,1,0-.2,3.45A2.45,2.45,0,0,0,11.82,5.64Z"/><path class="cls-3" d="M12.07,5.42a2.77,2.77,0,1,1-3.91-.23,2.78,2.78,0,0,1,3.91.23C13.08,6.56,11.05,4.28,12.07,5.42ZM8.41,8.67a2.12,2.12,0,1,0,.18-3,2.13,2.13,0,0,0-.18,3Z"/></svg>