<svg id="Layer_1" data-name="Layer 1" xmlns="http://www.w3.org/2000/svg" viewBox="0 0 60 60"><defs><style>.cls-1{fill:#4374b9;}</style></defs><path class="cls-1" d="M27.47,42.51a2.48,2.48,0,0,1,.42,3.27L23.63,52.2c-.29.45-.57.92-.9,1.34s-.44.74-.71,1.08a10.64,10.64,0,0,0-.75,1.1c-.33.49-.63,1-1,1.5a2.44,2.44,0,0,1-3.52.72A8,8,0,0,1,15.51,57a2.41,2.41,0,0,1-.16-3.11l5.58-8.43c.64-1,1.3-1.91,1.91-2.89a2.52,2.52,0,0,1,3.25-1l.68-1c1.5-2.26,3-4.55,4.52-6.77a7,7,0,0,1,4.87-2.91c1.59-.23,3.17-.44,4.76-.65l2-.28a.83.83,0,1,1,.2,1.64l-4.25.59c-.9.12-1.81.2-2.71.37a5.86,5.86,0,0,0-3.89,2.72c-1.57,2.39-3.16,4.76-4.73,7.15C27.49,42.45,27.49,42.47,27.47,42.51Zm-.77,1.93a.92.92,0,0,0-.36-.72l-.9-.6a.78.78,0,0,0-1.15.25q-1.21,1.8-2.41,3.61C20.93,48.41,20,49.85,19,51.29c-.79,1.21-1.6,2.41-2.39,3.62A.77.77,0,0,0,16.88,56l.75.5c.58.39,1,.3,1.36-.29q1.38-2.1,2.78-4.2l4.75-7.17A2.78,2.78,0,0,0,26.7,44.44Z"/><path class="cls-1" d="M22.42,10.82h7.81a.79.79,0,0,1,.81.85v7.89a.8.8,0,0,1-.85.86h-5c-1,0-1.92,0-2.87,0H14.83c-.72,0-1-.29-1-1V11.78a.85.85,0,0,1,.95-1Zm7,8V12.48H15.48v6.31Z"/><path class="cls-1" d="M53.72,30.37c-.49-.06-1-.1-1.47-.15l-1.35-.16,2.15-2.74a.82.82,0,0,0,.06-1.09A.84.84,0,0,0,52,26l-2.39,1.1L47.78,28c0-.36,0-.67,0-1,.08-1.5.17-3,.24-4.49a.78.78,0,0,0-.59-.86.83.83,0,0,0-.95.4l-.89,1.33c-.89,1.35-1.79,2.7-2.68,4.06a.84.84,0,0,0,.22,1.2.86.86,0,0,0,1.17-.31l.84-1.28,1.06-1.6c0,.16,0,.25,0,.33-.06,1.13-.13,2.27-.18,3.41a.81.81,0,0,0,1.22.83c.7-.31,1.39-.64,2.09-1l.21-.09c-.27.42-.57.78-.85,1.16a1.24,1.24,0,0,0-.23.51.81.81,0,0,0,.78.91l1.34.13a6.2,6.2,0,0,1-.92.53l-.82.43a.81.81,0,0,0-.28,1.23l.86,1.1a.82.82,0,0,1-.18,0l-1-.48a.82.82,0,0,0-1.24.66c-.08.49-.15,1-.23,1.48,0,.23-.08.47-.13.72,0,0-.07,0-.08-.07-.24-.43-.48-.86-.71-1.29a.85.85,0,0,0-1.49-.23l-2,2-.19.15c0-.46.1-.87.14-1.27.11-1,.22-1.92.34-2.88a.85.85,0,0,0-.68-.94.83.83,0,0,0-.95.71c-.11,1-.23,2-.35,3-.14,1.18-.27,2.36-.41,3.55a.82.82,0,0,0,.43.86.79.79,0,0,0,1-.16c.46-.44.91-.87,1.35-1.32.61-.63,1.2-1.26,1.82-1.91a2.2,2.2,0,0,1,.17.25c.46.83.91,1.66,1.36,2.49a.83.83,0,0,0,.9.46.78.78,0,0,0,.65-.68c.1-.51.17-1,.25-1.53.12-.69.23-1.39.34-2.12l1.27.6L52,38a2.58,2.58,0,0,0,.35.09.74.74,0,0,0,.81-.72,1.37,1.37,0,0,0-.26-.64c-.35-.47-.72-.93-1.08-1.39l-1.27-1.64.33-.19L54,31.89a.84.84,0,0,0,.42-.82A.82.82,0,0,0,53.72,30.37Z"/><path class="cls-1" d="M26.79,17.24a1,1,0,0,1-.56.78.82.82,0,0,1-.92-.21L24.2,16.58l-1.87-2.06a.83.83,0,0,1,0-1.22.81.81,0,0,1,1.19.09c1,1.1,2,2.19,3,3.3A2.37,2.37,0,0,1,26.79,17.24Z"/><path class="cls-1" d="M22,17.09a.87.87,0,0,1-.49.84.77.77,0,0,1-.89-.14c-.65-.7-1.29-1.4-1.92-2.12a.8.8,0,0,1,.1-1.14.83.83,0,0,1,1.14.07c.62.67,1.24,1.35,1.83,2A1.78,1.78,0,0,1,22,17.09Z"/><path class="cls-1" d="M39.26,12.4a2,2,0,0,0-2-2H36.11c-.19,0-.26,0-.25-.24,0-.45,0-.89,0-1.34,0-1.52,0-3,0-4.55A2.72,2.72,0,0,0,33.09,1.6H13.74c-.82,0-1.64,0-2.46,0A2.65,2.65,0,0,0,8.78,4c0,.65,0,1.3,0,2,0,1.21,0,2.42,0,3.63v.86c-.35,0-.66,0-1,0a2.09,2.09,0,0,0-2.21,2.2c0,2.28,0,4.57,0,6.85a2,2,0,0,0,2.18,2.19h1a2.06,2.06,0,0,1,0,.21q0,3.57,0,7.14t0,6.93c0,.32,0,.64,0,1a5.28,5.28,0,0,0,.09,1.26,2.68,2.68,0,0,0,2.72,2.06H26.18a.82.82,0,1,0,0-1.64H11.55a1.09,1.09,0,0,1-1.17-1.16V20.93a.81.81,0,0,0-.89-.88c-.58,0-1.15,0-1.73,0-.4,0-.53-.13-.53-.53V12.61c0-.39.14-.52.53-.52.61,0,1.21,0,1.81,0a1,1,0,0,0,.57-.25c.28-.2.24-.53.24-.83,0-2.18,0-4.37,0-6.55a1,1,0,0,1,.56-1.05,2,2,0,0,1,.85-.15H33a1.09,1.09,0,0,1,1.23,1.22v6.75a.82.82,0,0,0,.85.87h2c.37,0,.5.13.5.49q0,3.48,0,7c0,.39-.12.51-.52.51H35.19c-.67,0-1,.3-1,1v4.63c0,1.33,0,2.66,0,4a.84.84,0,0,0,.42.8.82.82,0,0,0,1.24-.72c0-2.57,0-5.14,0-7.72v-.36c.54,0,1,0,1.56,0a1.93,1.93,0,0,0,1.85-1.92C39.27,17.28,39.28,14.84,39.26,12.4Z"/></svg>